<?xml version="1.0" encoding="utf-8"?>
<svg viewBox="0 0 1792 1792" width="1792" height="1792" xmlns="http://www.w3.org/2000/svg">
  <path d="M1490 1322q0 40-28 68l-136 136q-28 28-68 28t-68-28l-294-294-294 294q-28 28-68 28t-68-28l-136-136q-28-28-28-68t28-68l294-294-294-294q-28-28-28-68t28-68l136-136q28-28 68-28t68 28l294 294 294-294q28-28 68-28t68 28l136 136q28 28 28 68t-28 68l-294 294 294 294q28 28 28 68z" style="fill: rgb(217, 83, 79);" transform="matrix(1, 0, 0, 1, 0, 2.842170943040401e-14)"/>
</svg>